<svg width="201" height="31" viewBox="0 0 201 31" fill="none" xmlns="http://www.w3.org/2000/svg"><path fill-rule="evenodd" clip-rule="evenodd" d="M3.755 31A19.315 19.315 0 010 19.534C0 8.745 8.834 0 19.73 0c10.898 0 19.731 8.745 19.731 19.534 0 4.284-1.393 8.246-3.755 11.466l-9.477-15.235-.915 1.53.929 4.254-6.512-11.03-4.029 6.732.938 4.298-3.413-5.775L3.755 31zM56.7 24.75v-10.8l7.286 10.8h3.34V9.09h-3.238v10.22L57.205 9.09H53.46v15.66h3.24zm19.088.24c3.259 0 5.91-2.4 5.91-5.62 0-3.18-2.61-5.54-5.87-5.54-3.279 0-5.93 2.42-5.93 5.6 0 3.22 2.61 5.56 5.89 5.56zm.02-2.86c-1.478 0-2.672-1.12-2.672-2.74 0-1.6 1.174-2.72 2.652-2.72 1.477 0 2.672 1.12 2.672 2.72 0 1.62-1.174 2.74-2.652 2.74zm11.234 2.62v-4.68c0-1.98 1.053-3.02 2.571-3.02.142 0 .587 0 1.013.08v-3.06a3.96 3.96 0 00-.85-.12c-1.114 0-2.207.46-2.794 1.68h-.04v-1.56h-2.997v10.68h3.098zm9.717.2c.729 0 2.348-.1 3.36-1.56h.041v1.36h3.056V8.47h-3.137v6.82h-.041c-1.113-1.3-2.611-1.42-3.239-1.42-3.097 0-5.182 2.82-5.182 5.52 0 2.88 2.004 5.56 5.142 5.56zm.729-2.82c-1.478 0-2.672-1.12-2.672-2.74 0-1.6 1.194-2.7 2.672-2.7 1.478 0 2.672 1.1 2.672 2.7 0 1.62-1.194 2.74-2.672 2.74z" fill="#D0D1D3"/><path fill-rule="evenodd" clip-rule="evenodd" d="M116.731 24.75l1.74-4h8.644l1.721 4h1.761l-6.842-15.66h-1.883l-6.842 15.66h1.701zm9.736-5.5h-7.368l3.684-8.46 3.684 8.46zm10.688 5.68c2.834 0 4.616-1.86 5.101-3.46l-1.477-.48c-.304.8-1.215 2.56-3.603 2.56-2.45 0-3.907-1.98-3.907-4.2s1.599-4.08 3.907-4.08c2.247 0 3.319 1.66 3.562 2.48l1.458-.46c-.446-1.8-2.45-3.4-4.96-3.4-3.056 0-5.587 2.32-5.587 5.56 0 3.2 2.389 5.48 5.506 5.48zm12.449 0c2.834 0 4.616-1.86 5.102-3.46l-1.478-.48c-.304.8-1.215 2.56-3.603 2.56-2.45 0-3.907-1.98-3.907-4.2s1.599-4.08 3.907-4.08c2.247 0 3.319 1.66 3.562 2.48l1.458-.46c-.446-1.8-2.45-3.4-4.96-3.4-3.056 0-5.587 2.32-5.587 5.56 0 3.2 2.389 5.48 5.506 5.48zm12.51 0c3.158 0 5.607-2.4 5.607-5.56 0-3.06-2.449-5.48-5.566-5.48-3.199 0-5.607 2.4-5.607 5.56 0 3.04 2.429 5.48 5.566 5.48zm.041-1.38c-2.368 0-3.988-1.94-3.988-4.18 0-2.24 1.599-4.12 3.947-4.12 2.349 0 3.988 1.96 3.988 4.2 0 2.22-1.639 4.1-3.947 4.1zm12.307 1.4c1.579 0 2.855-.7 3.705-2.16v1.96h1.538V14.07h-1.558v6.1c0 1.9-1.336 3.36-3.219 3.36-2.004 0-2.996-1.34-2.996-3.24v-6.22h-1.559v6.6c0 2.5 1.438 4.28 4.089 4.28zm10.405-.2v-6.08c0-1.9 1.336-3.38 3.218-3.38 2.004 0 2.996 1.34 2.996 3.24v6.22h1.579v-6.6c0-2.5-1.437-4.28-4.089-4.28-1.599 0-2.874.72-3.724 2.16v-1.96h-1.559v10.68h1.579zm14.898.08c.284 0 .911-.06 1.235-.16v-1.3c-.243.06-.628.08-.972.08-1.194 0-1.761-.54-1.761-1.5v-6.5H201v-1.38h-2.733v-3.08h-1.558v3.08h-2.004v1.38h2.004v6.54c0 1.56.708 2.84 3.056 2.84z" fill="#8A8C91"/></svg>