<svg width="48" height="48" viewBox="0 0 48 48" xmlns="http://www.w3.org/2000/svg" xmlns:xlink="http://www.w3.org/1999/xlink"><defs><linearGradient x1="50%" y1="0%" x2="50%" y2="100%" id="b"><stop stop-color="#FFF" stop-opacity=".096" offset="0%"/><stop stop-color="#FFF" stop-opacity="0" offset="100%"/></linearGradient><circle id="a" cx="24" cy="24" r="24"/><linearGradient x1="50%" y1="100%" x2="50%" y2="0%" id="e"><stop stop-color="#FFF" stop-opacity=".7" offset="0%"/><stop stop-color="#FFF" offset="100%"/></linearGradient><path d="M10.236 33.987C8.2 31.163 7 27.758 7 24c0-9.463 7.611-17 17-17s17 7.537 17 17c0 3.758-1.2 7.163-3.236 9.987l-8.133-13.175-.85 1.382.85 3.719L24 16.242l-3.4 5.845.744 3.718-2.975-4.994-8.133 13.175z" id="d"/><filter x="-5.9%" y="-3.7%" width="111.8%" height="114.8%" filterUnits="objectBoundingBox" id="c"><feOffset dy="1" in="SourceAlpha" result="shadowOffsetOuter1"/><feGaussianBlur stdDeviation=".5" in="shadowOffsetOuter1" result="shadowBlurOuter1"/><feColorMatrix values="0 0 0 0 0 0 0 0 0 0 0 0 0 0 0 0 0 0 0.4 0" in="shadowBlurOuter1"/></filter><filter x="-4.4%" y="-1.9%" width="108.8%" height="111.1%" filterUnits="objectBoundingBox" id="f"><feGaussianBlur stdDeviation=".5" in="SourceAlpha" result="shadowBlurInner1"/><feOffset in="shadowBlurInner1" result="shadowOffsetInner1"/><feComposite in="shadowOffsetInner1" in2="SourceAlpha" operator="arithmetic" k2="-1" k3="1" result="shadowInnerInner1"/><feColorMatrix values="0 0 0 0 1 0 0 0 0 1 0 0 0 0 1 0 0 0 0.3 0" in="shadowInnerInner1"/></filter></defs><g fill="none" fill-rule="evenodd"><use fill="#4687FF" xlink:href="#a"/><use fill="url(#b)" xlink:href="#a"/><use fill="#000" filter="url(#c)" xlink:href="#d"/><use fill="url(#e)" xlink:href="#d"/><use fill="#000" filter="url(#f)" xlink:href="#d"/></g></svg>